<?xml version="1.0" encoding="UTF-8"?>
<svg id="Layer_2" xmlns="http://www.w3.org/2000/svg" version="1.1" viewBox="0 0 500 200">
  <!-- Generator: Adobe Illustrator 29.0.1, SVG Export Plug-In . SVG Version: 2.1.0 Build 192)  -->
  <g>
    <path d="M64.71,60.11h37.17v5.65c-.16,10.73-3.84,19.7-11.04,26.85-7.21,7.15-16.17,10.73-26.85,10.73s-20.22-3.63-27.63-10.89c-7.41-7.26-11.09-16.28-11.09-27.06s3.68-19.75,11.09-27.01c7.41-7.26,16.59-10.89,27.63-10.89,8.86,0,16.64,2.39,23.43,7.15,6.74,4.82,11.04,10.94,12.86,18.35h-18.35c-3.37-5.96-10.11-9.7-17.94-9.7-6.22,0-11.41,2.13-15.6,6.33-4.2,4.2-6.27,9.49-6.27,15.76s2.07,11.56,6.27,15.76c4.2,4.2,9.38,6.32,15.6,6.32,4.61,0,8.71-1.14,12.29-3.47,3.58-2.28,6.07-5.29,7.57-9.02h-19.13v-14.88Z"/>
    <path d="M163.12,79.97h-41.42c1.71,6.07,6.58,9.85,12.96,9.85,5.13,0,9.49-2.28,11.35-5.39h16.43c-1.97,5.65-5.5,10.21-10.52,13.69-5.08,3.47-10.94,5.24-17.57,5.24-8.35,0-15.35-2.7-20.89-8.14-5.55-5.44-8.35-12.18-8.35-20.27s2.8-14.77,8.35-20.22c5.55-5.39,12.55-8.09,20.89-8.09s15.24,2.7,20.84,8.09c5.55,5.44,8.35,12.23,8.35,20.48,0,2.02-.16,3.63-.42,4.77ZM121.8,69.65h25.04c-1.61-5.96-6.53-9.64-12.49-9.64s-10.68,3.68-12.55,9.64Z"/>
    <path d="M199.52,47.93v14.1h-10.47v40.02h-15.5v-40.02h-9.9v-14.1h9.9v-12.55l15.5-3.42v15.97h10.47Z"/>
    <path d="M253.98,70.38c2.23,3.58,3.32,7.52,3.32,11.82,0,5.75-1.97,10.47-5.91,14.2-3.94,3.78-8.87,5.65-14.83,5.65h-31.42V28.8h28.77c5.6,0,10.26,1.76,14.05,5.29,3.73,3.58,5.6,8.04,5.6,13.48,0,3.27-.73,6.27-2.23,9.07-1.5,2.8-3.42,4.92-5.75,6.43,3.37,1.35,6.17,3.78,8.4,7.31ZM221.06,43.68v13.79h8.81c1.92,0,3.53-.67,4.82-2.02s1.97-2.95,1.97-4.87-.67-3.63-1.97-4.92-2.9-1.97-4.82-1.97h-8.81ZM232.57,87.17c2.28,0,4.15-.73,5.65-2.23,1.45-1.5,2.18-3.37,2.18-5.65s-.78-4.15-2.28-5.65-3.37-2.28-5.55-2.28h-11.51v15.81h11.51Z"/>
    <path d="M262.13,102.05V25.59h15.5v76.47h-15.5Z"/>
    <path d="M312.75,103.35c-8.35,0-15.35-2.7-20.89-8.14-5.55-5.44-8.35-12.18-8.35-20.27s2.8-14.77,8.35-20.22c5.55-5.39,12.55-8.09,20.89-8.09s15.29,2.7,20.84,8.09c5.55,5.44,8.35,12.18,8.35,20.22s-2.8,14.83-8.35,20.27c-5.55,5.44-12.5,8.14-20.84,8.14ZM312.75,88.37c3.78,0,6.95-1.3,9.49-3.84,2.54-2.54,3.78-5.75,3.78-9.59s-1.25-7-3.78-9.54c-2.54-2.54-5.7-3.78-9.49-3.78s-7,1.25-9.49,3.78c-2.54,2.54-3.78,5.75-3.78,9.54s1.24,7.05,3.78,9.59c2.49,2.54,5.65,3.84,9.49,3.84Z"/>
    <path d="M398.4,54.72c4.92,5.44,7.41,12.18,7.41,20.22s-2.49,14.83-7.41,20.27c-4.98,5.44-11.2,8.14-18.71,8.14-6.58,0-12.03-2.44-16.33-7.36v6.07h-15.5V25.59h15.5v28.36c4.3-4.87,9.75-7.31,16.33-7.31,7.52,0,13.74,2.7,18.71,8.09ZM376.63,88.37c3.78,0,6.95-1.3,9.49-3.84,2.54-2.54,3.78-5.75,3.78-9.59s-1.24-7-3.78-9.54c-2.54-2.54-5.7-3.78-9.49-3.78s-7,1.25-9.49,3.78c-2.54,2.54-3.78,5.75-3.78,9.54s1.25,7.05,3.78,9.59c2.49,2.54,5.65,3.84,9.49,3.84Z"/>
    <path d="M414.69,98.16c-4.04-3.42-6.07-7.62-6.07-12.55h15.5c0,2.95,2.65,5.39,5.76,5.39s5.29-1.87,5.29-4.15c0-2.7-2.9-4.67-8.71-5.96-11.41-2.7-17.11-8.4-17.06-17.16,0-5.34,1.97-9.49,5.86-12.55,3.89-3.06,8.66-4.56,14.31-4.56s10.68,1.66,14.57,4.92c3.89,3.27,5.81,7.31,5.81,12.08h-15.5c0-2.54-2.12-4.67-4.98-4.67-2.54,0-4.56,1.76-4.56,3.68,0,2.64,3.01,4.67,9.02,6.07,4.72,1.09,7.93,2.44,11.4,4.98,3.47,2.54,5.34,6.58,5.34,11.82,0,5.55-1.97,9.9-5.96,13.06s-8.97,4.77-14.93,4.77-11.04-1.71-15.09-5.18Z"/>
    <path d="M464.53,103.09c-3.06,0-5.55-.98-7.57-3.01s-3.06-4.51-3.06-7.57,1.04-5.5,3.06-7.52c2.02-2.02,4.51-3.01,7.57-3.01s5.6.99,7.67,3.01c2.02,2.02,3.06,4.56,3.06,7.52s-1.04,5.55-3.06,7.57c-2.08,2.02-4.61,3.01-7.67,3.01Z"/>
  </g>
  <g>
    <g>
      <path d="M41.95,131.59c3.25,0,5.95,1.05,8.11,3.18,2.13,2.13,3.2,4.75,3.2,7.93s-1.08,5.75-3.25,7.88c-2.18,2.13-4.85,3.2-8.06,3.2h-6.98v13.16h-4.7v-35.35h11.68ZM41.9,149.38c1.88,0,3.45-.63,4.7-1.9,1.23-1.28,1.85-2.85,1.85-4.78s-.63-3.5-1.88-4.78c-1.25-1.28-2.8-1.93-4.68-1.93h-6.93v13.38h6.93Z"/>
      <path d="M68.25,167.57c-3.98,0-7.28-1.3-9.93-3.93-2.68-2.63-4-5.88-4-9.78s1.33-7.13,4-9.76c2.65-2.6,5.95-3.9,9.93-3.9s7.28,1.3,9.93,3.9c2.63,2.63,3.95,5.88,3.95,9.76s-1.33,7.15-3.95,9.78c-2.65,2.63-5.95,3.93-9.93,3.93ZM74.93,160.61c1.78-1.78,2.65-4.03,2.65-6.73s-.88-4.95-2.65-6.75c-1.78-1.78-4-2.68-6.68-2.68s-4.93.9-6.7,2.68c-1.78,1.8-2.68,4.05-2.68,6.75s.9,4.95,2.68,6.73c1.78,1.8,4,2.7,6.7,2.7s4.9-.9,6.68-2.7Z"/>
      <path d="M121.62,140.83h4.85l-9.93,26.12h-4.6l-7.63-21.06-7.63,21.06h-4.63l-9.93-26.12h4.98l7.36,20.89,7.66-20.89h4.55l7.58,20.74,7.38-20.74Z"/>
      <path d="M154.11,155.71h-22.97c.38,2.33,1.43,4.2,3.13,5.63,1.68,1.45,3.7,2.18,6.05,2.18,1.95,0,3.68-.45,5.2-1.38,1.53-.9,2.63-2.08,3.3-3.55h4.85c-.95,2.7-2.63,4.88-5,6.51-2.4,1.65-5.18,2.48-8.36,2.48-3.98,0-7.28-1.3-9.91-3.93-2.65-2.63-3.98-5.88-3.98-9.78s1.33-7.13,3.98-9.76c2.63-2.6,5.93-3.9,9.91-3.9s7.25,1.3,9.91,3.93c2.65,2.63,3.98,5.88,3.98,9.76,0,.55-.02,1.15-.1,1.83ZM140.32,144.25c-2.33,0-4.3.7-5.95,2.08-1.68,1.38-2.73,3.2-3.18,5.45h18.31c-.43-2.23-1.48-4.03-3.15-5.43-1.7-1.4-3.7-2.1-6.03-2.1Z"/>
      <path d="M162.7,145.53c2.03-3.43,4.88-5.13,8.56-5.13v4.55c-2.68,0-4.75.8-6.28,2.4-1.53,1.63-2.28,3.78-2.28,6.48v13.11h-4.4v-26.12h4.4v4.7Z"/>
      <path d="M199.44,155.71h-22.97c.38,2.33,1.43,4.2,3.13,5.63,1.68,1.45,3.7,2.18,6.05,2.18,1.95,0,3.68-.45,5.2-1.38,1.53-.9,2.63-2.08,3.3-3.55h4.85c-.95,2.7-2.63,4.88-5,6.51-2.4,1.65-5.18,2.48-8.36,2.48-3.98,0-7.28-1.3-9.91-3.93-2.65-2.63-3.98-5.88-3.98-9.78s1.33-7.13,3.98-9.76c2.63-2.6,5.93-3.9,9.91-3.9s7.25,1.3,9.91,3.93c2.65,2.63,3.98,5.88,3.98,9.76,0,.55-.02,1.15-.1,1.83ZM185.65,144.25c-2.33,0-4.3.7-5.95,2.08-1.68,1.38-2.73,3.2-3.18,5.45h18.31c-.43-2.23-1.48-4.03-3.15-5.43-1.7-1.4-3.7-2.1-6.03-2.1Z"/>
      <path d="M225.24,130.04h4.4v36.9h-4.4v-4.98c-2.2,3.48-5.85,5.6-10.16,5.6-3.73,0-6.83-1.3-9.31-3.93-2.5-2.63-3.75-5.88-3.75-9.78s1.25-7.13,3.75-9.76c2.48-2.6,5.58-3.9,9.31-3.9,4.3,0,7.96,2.1,10.16,5.58v-15.74ZM222.59,160.61c1.78-1.78,2.65-4.03,2.65-6.73s-.88-4.95-2.65-6.75c-1.78-1.78-4-2.68-6.68-2.68s-4.93.9-6.7,2.68c-1.78,1.8-2.68,4.05-2.68,6.75s.9,4.95,2.68,6.73c1.78,1.8,4,2.7,6.7,2.7s4.9-.9,6.68-2.7Z"/>
      <path d="M270.57,144.1c2.5,2.63,3.75,5.88,3.75,9.76s-1.25,7.15-3.75,9.78c-2.53,2.63-5.63,3.93-9.36,3.93-4.3,0-7.96-2.1-10.13-5.6v4.98h-4.4v-36.9h4.4v15.74c2.2-3.48,5.83-5.58,10.13-5.58,3.73,0,6.83,1.3,9.36,3.9ZM267.12,160.61c1.78-1.78,2.65-4.03,2.65-6.73s-.88-4.95-2.65-6.75c-1.78-1.78-4.03-2.68-6.73-2.68s-4.88.9-6.65,2.68c-1.78,1.8-2.65,4.05-2.65,6.75s.88,4.95,2.65,6.73c1.78,1.8,3.98,2.7,6.65,2.7s4.95-.9,6.73-2.7Z"/>
      <path d="M296.83,140.83h4.93l-15.74,35.85h-4.78l4.35-9.83-11.41-26.02h5l8.83,20.84,8.81-20.84Z"/>
    </g>
    <g>
      <g>
        <path d="M438.53,166.94v-4.44h23.03c1.69,0,3.01-1.32,3.01-3.06v-4.17c0-1.21-.63-2.11-1.9-2.43l-18.75-4.38c-3.8-.9-4.86-3.12-4.86-6.6v-4.49c0-4.07,3.33-7.4,7.45-7.4h21.08v4.44h-20.65c-1.64,0-2.96,1.32-2.96,3.01v4.17c0,1.32.58,2.06,1.69,2.32l18.96,4.38c3.59.79,4.91,3.43,4.91,6.65v4.6c0,4.07-3.33,7.39-7.39,7.39h-23.61Z"/>
        <path d="M462.14,167.68h-24.34v-5.9h23.76c1.3,0,2.28-1,2.28-2.33v-4.17c0-.92-.45-1.5-1.35-1.72l-18.74-4.38c-4.78-1.13-5.43-4.33-5.43-7.32v-4.49c0-4.48,3.67-8.13,8.18-8.13h21.81v5.9h-21.39c-1.25,0-2.23,1-2.23,2.28v4.17c0,1.18.54,1.47,1.13,1.61l18.96,4.38c3.58.79,5.48,3.34,5.48,7.37v4.6c0,4.48-3.65,8.13-8.13,8.13ZM439.26,166.21h22.88c3.67,0,6.66-2.99,6.66-6.66v-4.6c0-3.31-1.46-5.3-4.34-5.94l-18.97-4.39c-1.03-.24-2.26-.97-2.26-3.04v-4.17c0-2.1,1.62-3.74,3.69-3.74h19.92v-2.97h-20.34c-3.7,0-6.71,2.99-6.71,6.66v4.49c0,3.55,1.16,5.15,4.3,5.89l18.75,4.38c1.57.39,2.47,1.54,2.47,3.14v4.17c0,2.13-1.64,3.8-3.74,3.8h-22.3v2.97Z"/>
      </g>
      <g>
        <path d="M391.52,166.94c-.69,0-1.06-.42-1.22-1.11l-8.24-35.87h4.38c.69,0,1.06.42,1.22,1.06l4.75,21.76c.74,3.22,1.43,6.44,2.06,9.72h2.54c.58-3.22,1.32-6.44,1.95-9.67l4.91-22.87h7.98c.69,0,1.06.42,1.22,1.06l4.65,21.76c.74,3.22,1.37,6.39,2.01,9.72h2.59c.63-3.27,1.37-6.44,2.06-9.72l5.02-22.82h5.02l-8.5,36.97h-9.09c-.69,0-1.06-.42-1.21-1.11l-4.7-21.87c-.79-3.43-1.37-6.5-1.85-9.56h-1.64c-.53,3.06-1.22,6.39-1.9,9.67l-4.97,22.87h-9.03Z"/>
        <path d="M426.49,167.68h-9.67c-.98,0-1.68-.61-1.93-1.68l-4.7-21.88c-.71-3.09-1.28-5.96-1.76-8.98h-.4c-.52,2.95-1.17,6.1-1.8,9.08l-5.09,23.45h-9.62c-.98,0-1.68-.61-1.93-1.68l-8.45-36.76h5.3c.97,0,1.67.59,1.92,1.61l4.76,21.78c.72,3.13,1.36,6.13,1.95,9.14h1.32c.33-1.76.7-3.53,1.06-5.25.27-1.28.54-2.55.79-3.83l5.04-23.46h8.57c.97,0,1.67.59,1.93,1.61l4.65,21.79c.75,3.28,1.38,6.43,1.9,9.14h1.38c.37-1.87.77-3.72,1.17-5.52.26-1.2.52-2.4.78-3.62l5.15-23.4h6.53l-8.84,38.44ZM406.8,133.67h2.88l.1.62c.5,3.22,1.08,6.24,1.84,9.51l4.71,21.88c.12.53.32.53.5.53h8.5l8.17-35.51h-3.51l-4.89,22.24c-.25,1.21-.52,2.42-.78,3.62-.43,1.98-.88,4.03-1.28,6.08l-.11.59h-3.8l-.11-.59c-.54-2.82-1.2-6.18-2-9.69l-4.65-21.77c-.12-.48-.33-.48-.5-.48h-7.38l-4.79,22.29c-.25,1.27-.52,2.55-.79,3.84-.4,1.9-.81,3.87-1.16,5.81l-.11.6h-3.75l-.11-.59c-.62-3.2-1.29-6.37-2.06-9.69l-4.75-21.77c-.12-.48-.33-.48-.5-.48h-3.47l8.04,34.97c.12.54.32.54.5.54h8.44l4.84-22.29c.67-3.18,1.36-6.54,1.9-9.64l.1-.61Z"/>
      </g>
      <g>
        <path d="M312.34,166.94v-36.97h8.87c.74,0,1.06.32,1.37,1l10.3,20.23c1.74,3.54,3.7,7.5,5.44,11.3h1.74c-.05-3.75-.05-7.34-.05-10.83v-21.71h4.81v36.97h-8.87c-.69,0-1.06-.37-1.32-1l-10.3-20.23c-1.8-3.49-3.7-7.45-5.44-11.3h-1.74c.05,3.75.05,7.34.05,10.83v21.71h-4.86Z"/>
        <path d="M345.56,167.68h-9.61c-1.39,0-1.85-1.1-2-1.45l-10.28-20.18c-1.71-3.32-3.53-7.08-5.26-10.9h-.53c.04,3.49.04,6.84.04,10.1v22.44h-6.32v-38.44h9.61c1.21,0,1.7.69,2.04,1.43l10.34,20.3c1.66,3.36,3.53,7.15,5.21,10.8h.53c-.04-3.49-.04-6.84-.04-10.1v-22.44h6.27v38.44ZM316.4,133.67h2.96l.19.43c1.78,3.94,3.66,7.84,5.42,11.27l10.3,20.23c.24.57.42.6.67.6h8.14v-35.51h-3.34v20.98c0,3.48,0,7.07.05,10.82v.74s-2.94,0-2.94,0l-.2-.43c-1.72-3.76-3.67-7.71-5.39-11.19l-.04-.09-10.3-20.22c-.27-.58-.39-.6-.72-.6h-8.14v35.51h3.4v-20.98c0-3.48,0-7.07-.05-10.82v-.74Z"/>
      </g>
      <g>
        <path d="M357.95,129.97l-8.37,36.97h5.23l2.36-10.19h17.3l2.12,9.13c.14.62.7,1.06,1.34,1.06h4.14l-8.11-35.85c-.15-.66-.73-1.12-1.4-1.12h-14.6ZM369.33,134.41l4.11,17.85h-15.24l4.11-17.85h7.03Z"/>
        <path d="M382.98,167.68h-5.06c-.98,0-1.83-.67-2.05-1.63l-1.99-8.57h-16.14l-2.36,10.19h-6.73l8.7-38.44h15.18c1.02,0,1.89.7,2.12,1.69l8.32,36.75ZM356.59,156.02h18.46l2.25,9.7c.07.29.32.49.62.49h3.22l-7.91-34.96c-.07-.32-.36-.55-.69-.55h-14.01l-8.04,35.51h3.73l2.36-10.19ZM374.36,152.99h-17.08l4.44-19.32h8.19l4.44,19.32ZM359.12,151.53h13.4l-3.77-16.39h-5.86l-3.77,16.39Z"/>
      </g>
    </g>
  </g>
</svg>