<?xml version="1.0" encoding="UTF-8"?>
<svg id="Layer_1" xmlns="http://www.w3.org/2000/svg" version="1.1" viewBox="0 0 139 24">
  <!-- Generator: Adobe Illustrator 29.8.2, SVG Export Plug-In . SVG Version: 2.1.1 Build 3)  -->
  <path d="M12.3,10.6h11.5v1.7c0,3.3-1.2,6.1-3.4,8.3-2.2,2.2-5,3.3-8.3,3.3s-6.2-1.1-8.5-3.4C1.3,18.4.2,15.6.2,12.3S1.3,6.2,3.6,3.9C5.9,1.7,8.7.6,12.1.6s5.1.7,7.2,2.2c2.1,1.5,3.4,3.4,4,5.7h-5.7c-1-1.8-3.1-3-5.5-3s-3.5.7-4.8,2c-1.3,1.3-1.9,2.9-1.9,4.9s.6,3.6,1.9,4.9c1.3,1.3,2.9,2,4.8,2s2.7-.4,3.8-1.1c1.1-.7,1.9-1.6,2.3-2.8h-5.9v-4.6Z"/>
  <path d="M42.7,16.8h-12.8c.5,1.9,2,3,4,3s2.9-.7,3.5-1.7h5.1c-.6,1.7-1.7,3.2-3.3,4.2-1.6,1.1-3.4,1.6-5.4,1.6s-4.7-.8-6.5-2.5c-1.7-1.7-2.6-3.8-2.6-6.3s.9-4.6,2.6-6.2c1.7-1.7,3.9-2.5,6.5-2.5s4.7.8,6.4,2.5c1.7,1.7,2.6,3.8,2.6,6.3s0,1.1-.1,1.5ZM30,13.6h7.7c-.5-1.8-2-3-3.9-3s-3.3,1.1-3.9,3Z"/>
  <path d="M54,6.9v4.4h-3.2v12.4h-4.8v-12.4h-3.1v-4.4h3.1v-3.9l4.8-1.1v4.9h3.2Z"/>
  <path d="M70.8,13.8c.7,1.1,1,2.3,1,3.7s-.6,3.2-1.8,4.4c-1.2,1.2-2.7,1.7-4.6,1.7h-9.7V1h8.9c1.7,0,3.2.5,4.3,1.6,1.2,1.1,1.7,2.5,1.7,4.2s-.2,1.9-.7,2.8c-.5.9-1.1,1.5-1.8,2,1,.4,1.9,1.2,2.6,2.3ZM60.6,5.6v4.3h2.7c.6,0,1.1-.2,1.5-.6s.6-.9.6-1.5-.2-1.1-.6-1.5-.9-.6-1.5-.6h-2.7ZM64.2,19c.7,0,1.3-.2,1.7-.7.4-.5.7-1,.7-1.7s-.2-1.3-.7-1.7-1-.7-1.7-.7h-3.6v4.9h3.6Z"/>
  <path d="M73.3,23.6V0h4.8v23.6h-4.8Z"/>
  <path d="M89,24c-2.6,0-4.7-.8-6.5-2.5s-2.6-3.8-2.6-6.3.9-4.6,2.6-6.2c1.7-1.7,3.9-2.5,6.5-2.5s4.7.8,6.4,2.5c1.7,1.7,2.6,3.8,2.6,6.2s-.9,4.6-2.6,6.3c-1.7,1.7-3.9,2.5-6.4,2.5ZM89,19.4c1.2,0,2.1-.4,2.9-1.2.8-.8,1.2-1.8,1.2-3s-.4-2.2-1.2-2.9c-.8-.8-1.8-1.2-2.9-1.2s-2.2.4-2.9,1.2c-.8.8-1.2,1.8-1.2,2.9s.4,2.2,1.2,3c.8.8,1.7,1.2,2.9,1.2Z"/>
  <path d="M115.4,9c1.5,1.7,2.3,3.8,2.3,6.2s-.8,4.6-2.3,6.3c-1.5,1.7-3.5,2.5-5.8,2.5s-3.7-.8-5-2.3v1.9h-4.8V0h4.8v8.8c1.3-1.5,3-2.3,5-2.3s4.2.8,5.8,2.5ZM108.7,19.4c1.2,0,2.1-.4,2.9-1.2.8-.8,1.2-1.8,1.2-3s-.4-2.2-1.2-2.9c-.8-.8-1.8-1.2-2.9-1.2s-2.2.4-2.9,1.2c-.8.8-1.2,1.8-1.2,2.9s.4,2.2,1.2,3c.8.8,1.7,1.2,2.9,1.2Z"/>
  <path d="M120.5,22.4c-1.2-1.1-1.9-2.4-1.9-3.9h4.8c0,.9.8,1.7,1.8,1.7s1.6-.6,1.6-1.3-.9-1.4-2.7-1.8c-3.5-.8-5.3-2.6-5.3-5.3,0-1.6.6-2.9,1.8-3.9,1.2-.9,2.7-1.4,4.4-1.4s3.3.5,4.5,1.5c1.2,1,1.8,2.3,1.8,3.7h-4.8c0-.8-.7-1.4-1.5-1.4s-1.4.5-1.4,1.1.9,1.4,2.8,1.9c1.5.3,2.4.8,3.5,1.5,1.1.8,1.6,2,1.6,3.7s-.6,3.1-1.8,4-2.8,1.5-4.6,1.5-3.4-.5-4.7-1.6Z"/>
  <path d="M135.8,23.9c-.9,0-1.7-.3-2.3-.9s-.9-1.4-.9-2.3.3-1.7.9-2.3c.6-.6,1.4-.9,2.3-.9s1.7.3,2.4.9c.6.6.9,1.4.9,2.3s-.3,1.7-.9,2.3c-.6.6-1.4.9-2.4.9Z"/>
</svg>